#N canvas 505 165 637 440 10;
#X obj 206 34 bng 15 250 50 0 empty empty empty 17 7 0 10 -262144 -1
-1;
#X obj 87 20 loadbang;
#X msg 86 44 440;
#X floatatom 89 72 5 0 0 0 - - -, f 5;
#X msg 98 96 keynote \$1;
#X floatatom 214 254 5 0 0 0 - - -, f 5;
#X floatatom 230 278 5 0 0 0 - - -, f 5;
#X floatatom 193 226 5 0 0 0 - - -, f 5;
#X obj 192 137 ph_pitchperfect, f 71;
#X floatatom 268 254 5 0 0 0 - - -, f 5;
#X floatatom 286 280 5 0 0 0 - - -, f 5;
#X floatatom 249 227 5 0 0 0 - - -, f 5;
#X floatatom 303 231 5 0 0 0 - - -, f 5;
#X floatatom 321 255 5 0 0 0 - - -, f 5;
#X floatatom 340 278 5 0 0 0 - - -, f 5;
#X floatatom 385 252 5 0 0 0 - - -, f 5;
#X floatatom 401 276 5 0 0 0 - - -, f 5;
#X floatatom 364 224 5 0 0 0 - - -, f 5;
#X floatatom 439 252 5 0 0 0 - - -, f 5;
#X floatatom 457 278 5 0 0 0 - - -, f 5;
#X floatatom 420 225 5 0 0 0 - - -, f 5;
#X floatatom 474 229 5 0 0 0 - - -, f 5;
#X floatatom 492 253 5 0 0 0 - - -, f 5;
#X floatatom 511 276 5 0 0 0 - - -, f 5;
#X floatatom 545 252 5 0 0 0 - - -, f 5;
#X floatatom 559 273 5 0 0 0 - - -, f 5;
#X floatatom 530 226 5 0 0 0 - - -, f 5;
#X floatatom 600 250 5 0 0 0 - - -, f 5;
#X floatatom 616 274 5 0 0 0 - - -, f 5;
#X floatatom 579 222 5 0 0 0 - - -, f 5;
#X connect 0 0 8 0;
#X connect 1 0 2 0;
#X connect 2 0 3 0;
#X connect 3 0 4 0;
#X connect 4 0 8 0;
#X connect 8 0 7 0;
#X connect 8 1 5 0;
#X connect 8 2 6 0;
#X connect 8 3 11 0;
#X connect 8 4 9 0;
#X connect 8 5 10 0;
#X connect 8 6 12 0;
#X connect 8 7 13 0;
#X connect 8 8 14 0;
#X connect 8 9 17 0;
#X connect 8 10 15 0;
#X connect 8 11 16 0;
#X connect 8 12 20 0;
#X connect 8 13 18 0;
#X connect 8 14 19 0;
#X connect 8 15 21 0;
#X connect 8 16 22 0;
#X connect 8 17 23 0;
#X connect 8 18 26 0;
#X connect 8 19 24 0;
#X connect 8 20 25 0;
#X connect 8 21 29 0;
#X connect 8 22 27 0;
#X connect 8 23 28 0;
